<?xml version="1.0" encoding="UTF-8"?>
<svg width="17px" height="10px" viewBox="0 0 17 10" version="1.1" xmlns="http://www.w3.org/2000/svg" xmlns:xlink="http://www.w3.org/1999/xlink">
    <title>Path</title>
    <g id="Page-1" stroke="none" stroke-width="1" fill="none" fill-rule="evenodd" opacity="0.600000024">
        <g id="book-Session" transform="translate(-753.000000, -831.000000)" fill="#2F2F2F" fill-rule="nonzero">
            <g id="Group-8" transform="translate(298.000000, 199.000000)">
                <g id="Group-5" transform="translate(146.000000, 574.000000)">
                    <path d="M321.755637,62.3756799 L314.938321,55.2556077 C314.780645,55.090796 314.570161,55 314.345728,55 C314.121294,55 313.91081,55.090796 313.753134,55.2556077 L313.251086,55.7798311 C312.9244,56.1214218 312.9244,56.6766043 313.251086,57.0176747 L318.975753,62.996683 L313.244734,68.9823253 C313.087058,69.147137 313,69.3668425 313,69.6011171 C313,69.8356517 313.087058,70.0553573 313.244734,70.220299 L313.746782,70.7443923 C313.904583,70.909204 314.114943,71 314.339376,71 C314.563809,71 314.774293,70.909204 314.931969,70.7443923 L321.755637,63.6178161 C321.913687,63.4524841 322.000496,63.231738 322,62.9970732 C322.000496,62.7614979 321.913687,62.5408818 321.755637,62.3756799 Z" id="Path" transform="translate(317.500000, 63.000000) rotate(90.000000) translate(-317.500000, -63.000000) "></path>
                </g>
            </g>
        </g>
    </g>
</svg>