<?xml version="1.0" encoding="UTF-8"?>
<svg width="198px" height="214px" viewBox="0 0 198 214" version="1.1" xmlns="http://www.w3.org/2000/svg" xmlns:xlink="http://www.w3.org/1999/xlink">
    <title>element</title>
    <g id="Page-1" stroke="none" stroke-width="1" fill="none" fill-rule="evenodd">
        <g id="apply-now" transform="translate(-189.000000, -185.000000)" fill="#1E4572" fill-rule="nonzero">
            <g id="Group_8509" transform="translate(288.000000, 292.000000) scale(-1, -1) rotate(180.000000) translate(-288.000000, -292.000000) translate(189.000000, 185.000000)">
                <g id="Group_8505" transform="translate(32.000000, 0.000000)">
                    <g id="Group_8502" transform="translate(0.000000, 16.000000)">
                        <circle id="Ellipse_59" cx="3" cy="3" r="3"></circle>
                        <circle id="Ellipse_60" cx="19" cy="3" r="3"></circle>
                        <circle id="Ellipse_61" cx="35" cy="3" r="3"></circle>
                        <circle id="Ellipse_62" cx="51" cy="3" r="3"></circle>
                        <circle id="Ellipse_63" cx="67" cy="3" r="3"></circle>
                        <circle id="Ellipse_64" cx="83" cy="3" r="3"></circle>
                        <circle id="Ellipse_65" cx="99" cy="3" r="3"></circle>
                        <circle id="Ellipse_66" cx="115" cy="3" r="3"></circle>
                        <circle id="Ellipse_67" cx="131" cy="3" r="3"></circle>
                        <circle id="Ellipse_68" cx="147" cy="3" r="3"></circle>
                        <circle id="Ellipse_69" cx="163" cy="3" r="3"></circle>
                    </g>
                    <g id="Group_8504">
                        <circle id="Ellipse_59-2" cx="3" cy="3" r="3"></circle>
                        <circle id="Ellipse_60-2" cx="19" cy="3" r="3"></circle>
                        <circle id="Ellipse_61-2" cx="35" cy="3" r="3"></circle>
                        <circle id="Ellipse_62-2" cx="51" cy="3" r="3"></circle>
                        <circle id="Ellipse_63-2" cx="67" cy="3" r="3"></circle>
                        <circle id="Ellipse_64-2" cx="83" cy="3" r="3"></circle>
                        <circle id="Ellipse_65-2" cx="99" cy="3" r="3"></circle>
                        <circle id="Ellipse_66-2" cx="115" cy="3" r="3"></circle>
                        <circle id="Ellipse_67-2" cx="131" cy="3" r="3"></circle>
                        <circle id="Ellipse_68-2" cx="147" cy="3" r="3"></circle>
                        <circle id="Ellipse_69-2" cx="163" cy="3" r="3"></circle>
                    </g>
                </g>
                <g id="Group_8505-2" transform="translate(11.000000, 107.000000) rotate(90.000000) translate(-11.000000, -107.000000) translate(-96.000000, 96.000000)">
                    <g id="Group_8502-2">
                        <circle id="Ellipse_59-3" cx="3" cy="3" r="3"></circle>
                        <circle id="Ellipse_60-3" cx="19" cy="3" r="3"></circle>
                        <circle id="Ellipse_61-3" cx="35" cy="3" r="3"></circle>
                        <circle id="Ellipse_62-3" cx="51" cy="3" r="3"></circle>
                        <circle id="Ellipse_63-3" cx="67" cy="3" r="3"></circle>
                        <circle id="Ellipse_64-3" cx="83" cy="3" r="3"></circle>
                        <circle id="Ellipse_65-3" cx="99" cy="3" r="3"></circle>
                        <circle id="Ellipse_66-3" cx="115" cy="3" r="3"></circle>
                        <circle id="Ellipse_67-3" cx="131" cy="3" r="3"></circle>
                        <circle id="Ellipse_68-3" cx="147" cy="3" r="3"></circle>
                        <circle id="Ellipse_69-3" cx="163" cy="3" r="3"></circle>
                        <circle id="Ellipse_73" cx="179" cy="3" r="3"></circle>
                        <circle id="Ellipse_74" cx="195" cy="3" r="3"></circle>
                        <circle id="Ellipse_75" cx="211" cy="3" r="3"></circle>
                    </g>
                    <g id="Group_8503" transform="translate(0.000000, 16.000000)">
                        <circle id="Ellipse_59-4" cx="3" cy="3" r="3"></circle>
                        <circle id="Ellipse_60-4" cx="19" cy="3" r="3"></circle>
                        <circle id="Ellipse_61-4" cx="35" cy="3" r="3"></circle>
                        <circle id="Ellipse_62-4" cx="51" cy="3" r="3"></circle>
                        <circle id="Ellipse_63-4" cx="67" cy="3" r="3"></circle>
                        <circle id="Ellipse_64-4" cx="83" cy="3" r="3"></circle>
                        <circle id="Ellipse_65-4" cx="99" cy="3" r="3"></circle>
                        <circle id="Ellipse_66-4" cx="115" cy="3" r="3"></circle>
                        <circle id="Ellipse_67-4" cx="131" cy="3" r="3"></circle>
                        <circle id="Ellipse_68-4" cx="147" cy="3" r="3"></circle>
                        <circle id="Ellipse_69-4" cx="163" cy="3" r="3"></circle>
                        <circle id="Ellipse_76" cx="179" cy="3" r="3"></circle>
                        <circle id="Ellipse_77" cx="195" cy="3" r="3"></circle>
                        <circle id="Ellipse_78" cx="211" cy="3" r="3"></circle>
                    </g>
                </g>
            </g>
        </g>
    </g>
</svg>