<?xml version="1.0" encoding="UTF-8"?>
<svg width="51px" height="51px" viewBox="0 0 51 51" version="1.1" xmlns="http://www.w3.org/2000/svg" xmlns:xlink="http://www.w3.org/1999/xlink">
    <title>Group 22</title>
    <g id="Page-1" stroke="none" stroke-width="1" fill="none" fill-rule="evenodd">
        <g id="Modal" transform="translate(-1109.000000, -301.000000)">
            <g id="Group-21" transform="translate(426.000000, 287.000000)">
                <g id="Group-22" transform="translate(683.000000, 14.000000)">
                    <circle id="Oval" fill="#07466F" cx="25.214976" cy="25.214976" r="25.214976"></circle>
                    <path d="M27.0248947,25.3345392 L34.2089741,18.150241 C34.6765018,17.6829322 34.6765018,16.9273584 34.2089741,16.4600496 C33.7416653,15.9927408 32.9860915,15.9927408 32.5187827,16.4600496 L25.3344845,23.6443479 L18.1504051,16.4600496 C17.6828775,15.9927408 16.9275226,15.9927408 16.4602138,16.4600496 C15.9926861,16.9273584 15.9926861,17.6829322 16.4602138,18.150241 L23.6442931,25.3345392 L16.4602138,32.5188375 C15.9926861,32.9861463 15.9926861,33.74172 16.4602138,34.2090288 C16.6931021,34.442136 16.9993152,34.5592368 17.3053095,34.5592368 C17.6113037,34.5592368 17.917298,34.442136 18.1504051,34.2090288 L25.3344845,27.0247306 L32.5187827,34.2090288 C32.7518899,34.442136 33.0578842,34.5592368 33.3638785,34.5592368 C33.6698727,34.5592368 33.9758669,34.442136 34.2089741,34.2090288 C34.6765018,33.74172 34.6765018,32.9861463 34.2089741,32.5188375 L27.0248947,25.3345392 Z" id="Path" fill="#FFFFFF" fill-rule="nonzero"></path>
                </g>
            </g>
        </g>
    </g>
</svg>