<?xml version="1.0" encoding="UTF-8"?>
<svg width="193px" height="204px" viewBox="0 0 193 204" version="1.1" xmlns="http://www.w3.org/2000/svg" xmlns:xlink="http://www.w3.org/1999/xlink">
    <title>Group_8510</title>
    <g id="Page-1" stroke="none" stroke-width="1" fill="none" fill-rule="evenodd" opacity="0.6">
        <g id="jcolemanv1" transform="translate(-992.000000, -290.000000)" fill="#FFFFFF" fill-rule="nonzero">
            <g id="Group-7" transform="translate(992.000000, 290.000000)">
                <g id="Group_8509-3" transform="translate(0.680000, 0.000000)">
                    <g id="Group_8505-5" transform="translate(32.184000, 0.000000)">
                        <g id="Group_8502-5" transform="translate(0.000000, 15.232000)">
                            <circle id="Ellipse_59-9" cx="2.856" cy="2.856" r="2.856"></circle>
                            <circle id="Ellipse_60-9" cx="18.088" cy="2.856" r="2.856"></circle>
                            <circle id="Ellipse_61-9" cx="33.32" cy="2.856" r="2.856"></circle>
                            <circle id="Ellipse_62-9" cx="48.552" cy="2.856" r="2.856"></circle>
                            <circle id="Ellipse_63-9" cx="63.784" cy="2.856" r="2.856"></circle>
                            <circle id="Ellipse_64-9" cx="79.016" cy="2.856" r="2.856"></circle>
                            <circle id="Ellipse_65-9" cx="94.248" cy="2.856" r="2.856"></circle>
                            <circle id="Ellipse_66-9" cx="109.48" cy="2.856" r="2.856"></circle>
                            <circle id="Ellipse_67-9" cx="124.712" cy="2.856" r="2.856"></circle>
                            <circle id="Ellipse_68-9" cx="139.944" cy="2.856" r="2.856"></circle>
                            <circle id="Ellipse_69-9" cx="155.176" cy="2.856" r="2.856"></circle>
                        </g>
                        <g id="Group_8504-3">
                            <circle id="Ellipse_59-10" cx="2.856" cy="2.856" r="2.856"></circle>
                            <circle id="Ellipse_60-10" cx="18.088" cy="2.856" r="2.856"></circle>
                            <circle id="Ellipse_61-10" cx="33.32" cy="2.856" r="2.856"></circle>
                            <circle id="Ellipse_62-10" cx="48.552" cy="2.856" r="2.856"></circle>
                            <circle id="Ellipse_63-10" cx="63.784" cy="2.856" r="2.856"></circle>
                            <circle id="Ellipse_64-10" cx="79.016" cy="2.856" r="2.856"></circle>
                            <circle id="Ellipse_65-10" cx="94.248" cy="2.856" r="2.856"></circle>
                            <circle id="Ellipse_66-10" cx="109.48" cy="2.856" r="2.856"></circle>
                            <circle id="Ellipse_67-10" cx="124.712" cy="2.856" r="2.856"></circle>
                            <circle id="Ellipse_68-10" cx="139.944" cy="2.856" r="2.856"></circle>
                            <circle id="Ellipse_69-10" cx="155.176" cy="2.856" r="2.856"></circle>
                        </g>
                    </g>
                    <g id="Group_8505-6" transform="translate(11.664000, 102.000000) rotate(90.000000) translate(-11.664000, -102.000000) translate(-90.336000, 91.000000)">
                        <g id="Group_8502-6">
                            <circle id="Ellipse_59-11" cx="2.856" cy="2.856" r="2.856"></circle>
                            <circle id="Ellipse_60-11" cx="18.088" cy="2.856" r="2.856"></circle>
                            <circle id="Ellipse_61-11" cx="33.32" cy="2.856" r="2.856"></circle>
                            <circle id="Ellipse_62-11" cx="48.552" cy="2.856" r="2.856"></circle>
                            <circle id="Ellipse_63-11" cx="63.784" cy="2.856" r="2.856"></circle>
                            <circle id="Ellipse_64-11" cx="79.016" cy="2.856" r="2.856"></circle>
                            <circle id="Ellipse_65-11" cx="94.248" cy="2.856" r="2.856"></circle>
                            <circle id="Ellipse_66-11" cx="109.48" cy="2.856" r="2.856"></circle>
                            <circle id="Ellipse_67-11" cx="124.712" cy="2.856" r="2.856"></circle>
                            <circle id="Ellipse_68-11" cx="139.944" cy="2.856" r="2.856"></circle>
                            <circle id="Ellipse_69-11" cx="155.176" cy="2.856" r="2.856"></circle>
                            <circle id="Ellipse_73-3" cx="170.408" cy="2.856" r="2.856"></circle>
                            <circle id="Ellipse_74-3" cx="185.64" cy="2.856" r="2.856"></circle>
                            <circle id="Ellipse_75-3" cx="200.872" cy="2.856" r="2.856"></circle>
                        </g>
                        <g id="Group_8503-3" transform="translate(0.000000, 15.232000)">
                            <circle id="Ellipse_59-12" cx="2.856" cy="2.856" r="2.856"></circle>
                            <circle id="Ellipse_60-12" cx="18.088" cy="2.856" r="2.856"></circle>
                            <circle id="Ellipse_61-12" cx="33.32" cy="2.856" r="2.856"></circle>
                            <circle id="Ellipse_62-12" cx="48.552" cy="2.856" r="2.856"></circle>
                            <circle id="Ellipse_63-12" cx="63.784" cy="2.856" r="2.856"></circle>
                            <circle id="Ellipse_64-12" cx="79.016" cy="2.856" r="2.856"></circle>
                            <circle id="Ellipse_65-12" cx="94.248" cy="2.856" r="2.856"></circle>
                            <circle id="Ellipse_66-12" cx="109.48" cy="2.856" r="2.856"></circle>
                            <circle id="Ellipse_67-12" cx="124.712" cy="2.856" r="2.856"></circle>
                            <circle id="Ellipse_68-12" cx="139.944" cy="2.856" r="2.856"></circle>
                            <circle id="Ellipse_69-12" cx="155.176" cy="2.856" r="2.856"></circle>
                            <circle id="Ellipse_76-3" cx="170.408" cy="2.856" r="2.856"></circle>
                            <circle id="Ellipse_77-3" cx="185.64" cy="2.856" r="2.856"></circle>
                            <circle id="Ellipse_78-3" cx="200.872" cy="2.856" r="2.856"></circle>
                        </g>
                    </g>
                </g>
            </g>
        </g>
    </g>
</svg>