<?xml version="1.0" encoding="UTF-8"?>
<svg width="20px" height="20px" viewBox="0 0 20 20" version="1.1" xmlns="http://www.w3.org/2000/svg" xmlns:xlink="http://www.w3.org/1999/xlink">
    <title>Group 16</title>
    <g id="Page-1" stroke="none" stroke-width="1" fill="none" fill-rule="evenodd">
        <g id="Schedule--Session" transform="translate(-631.000000, -783.000000)">
            <g id="Group-13" transform="translate(490.000000, 316.000000)">
                <g id="Group-12" transform="translate(0.000000, 216.000000)">
                    <g id="Group-9" transform="translate(2.000000, 232.000000)">
                        <g id="Group-8" transform="translate(32.000000, 17.000000)">
                            <g id="Group-16" transform="translate(107.000000, 2.000000)">
                                <circle id="Oval" fill="#07466F" cx="10" cy="10" r="10"></circle>
                                <path d="M10.8099579,10.1338157 L13.6835896,7.2600964 C13.8706007,7.07317287 13.8706007,6.77094337 13.6835896,6.58401984 C13.4966661,6.39709632 13.1944366,6.39709632 13.0075131,6.58401984 L10.1337938,9.45773915 L7.26016206,6.58401984 C7.07315099,6.39709632 6.77100903,6.39709632 6.5840855,6.58401984 C6.39707443,6.77094337 6.39707443,7.07317287 6.5840855,7.2600964 L9.45771726,10.1338157 L6.5840855,13.007535 C6.39707443,13.1944585 6.39707443,13.496688 6.5840855,13.6836115 C6.67724083,13.7768544 6.79972609,13.8236947 6.92212379,13.8236947 C7.04452148,13.8236947 7.16691918,13.7768544 7.26016206,13.6836115 L10.1337938,10.8098922 L13.0075131,13.6836115 C13.100756,13.7768544 13.2231537,13.8236947 13.3455514,13.8236947 C13.4679491,13.8236947 13.5903468,13.7768544 13.6835896,13.6836115 C13.8706007,13.496688 13.8706007,13.1944585 13.6835896,13.007535 L10.8099579,10.1338157 Z" id="Path" fill="#FFFFFF" fill-rule="nonzero" transform="translate(10.133838, 10.133761) rotate(45.000000) translate(-10.133838, -10.133761) "></path>
                            </g>
                        </g>
                    </g>
                </g>
            </g>
        </g>
    </g>
</svg>