<?xml version="1.0" encoding="UTF-8"?>
<svg width="15px" height="18px" viewBox="0 0 15 18" version="1.1" xmlns="http://www.w3.org/2000/svg" xmlns:xlink="http://www.w3.org/1999/xlink">
    <title>secure-payment</title>
    <g id="Page-1" stroke="none" stroke-width="1" fill="none" fill-rule="evenodd">
        <g id="Modal" transform="translate(-675.000000, -667.000000)" fill="#07466F" fill-rule="nonzero">
            <g id="Group-21" transform="translate(426.000000, 287.000000)">
                <g id="Group-20" transform="translate(63.000000, 58.000000)">
                    <g id="Group-19" transform="translate(186.000000, 320.000000)">
                        <g id="secure-payment" transform="translate(0.000000, 2.000000)">
                            <path d="M9.322944,6.476976 C9.212016,6.366096 9.057408,6.302496 8.89872,6.302496 C8.737776,6.302496 8.5872,6.364416 8.474544,6.476976 L6.373968,8.577504 L5.648592,7.852032 C5.535312,7.739088 5.384784,7.67688 5.2248,7.67688 C5.064672,7.67688 4.914048,7.739184 4.800624,7.852512 C4.687296,7.965888 4.624848,8.116608 4.624848,8.276832 C4.624848,8.4372 4.687344,8.58792 4.800576,8.701104 L5.950128,9.850752 C6.062496,9.96288 6.213024,10.024608 6.373872,10.024608 C6.37392,10.024608 6.37392,10.024608 6.37392,10.024608 C6.534864,10.024608 6.685344,9.962832 6.79824,9.85032 L9.32304,7.325568 C9.556896,7.091712 9.556944,6.71112 9.322944,6.476976 Z" id="Path"></path>
                            <path d="M14.061936,3.541968 C14.052432,3.432672 13.98624,3.336384 13.8876,3.288432 L7.193712,0.03144 C7.107552,-0.010512 7.006848,-0.010512 6.920688,0.03144 L0.226848,3.288384 C0.128208,3.336384 0.061968,3.432624 0.052512,3.54192 C0.043968,3.640128 -0.147984,5.98032 0.591504,8.838576 C1.027104,10.522272 1.697856,12.032688 2.585088,13.327872 C3.697872,14.95224 5.154144,16.238688 6.913584,17.151408 C6.958608,17.174784 7.007952,17.186448 7.057248,17.186448 C7.106544,17.186448 7.155888,17.174784 7.200912,17.151408 C8.960304,16.238688 10.416672,14.952288 11.529456,13.327872 C12.416688,12.032688 13.08744,10.522272 13.522992,8.838576 C14.262432,5.98032 14.07048,3.640176 14.061936,3.541968 Z M7.0572,12.081648 C4.868976,12.081648 3.088752,10.301424 3.088752,8.1132 C3.088752,5.924976 4.868976,4.144752 7.0572,4.144752 C9.245424,4.144752 11.025648,5.924976 11.025648,8.1132 C11.025648,10.301424 9.245424,12.081648 7.0572,12.081648 Z" id="Shape"></path>
                        </g>
                    </g>
                </g>
            </g>
        </g>
    </g>
</svg>