<?xml version="1.0" encoding="UTF-8"?>
<svg width="146px" height="149px" viewBox="0 0 146 149" version="1.1" xmlns="http://www.w3.org/2000/svg" xmlns:xlink="http://www.w3.org/1999/xlink">
    <title>Path</title>
    <defs>
        <linearGradient x1="6.5172419%" y1="86.5830771%" x2="80.9693705%" y2="14.0879471%" id="linearGradient-1">
            <stop stop-color="#07466F" offset="0%"></stop>
            <stop stop-color="#2F88C2" offset="100%"></stop>
        </linearGradient>
    </defs>
    <g id="Page-1" stroke="none" stroke-width="1" fill="none" fill-rule="evenodd" opacity="0.899999976">
        <g id="Schedule--Session" transform="translate(-222.000000, -219.000000)" fill="url(#linearGradient-1)" fill-rule="nonzero">
            <path d="M372.456887,294.572474 L280.827185,238.141192 C274.19797,234.063657 266.183099,233.894125 259.386926,237.687695 C252.590754,241.48066 248.533473,248.389371 248.533473,256.166931 L248.533473,368.51545 C248.533473,380.275486 258.017632,389.894279 269.67436,389.958156 C269.706176,389.958156 269.737992,389.958156 269.769202,389.958156 C273.411967,389.958156 277.208055,388.817149 280.753554,386.655622 C283.605771,384.917016 284.507221,381.197617 282.767044,378.348277 C281.026868,375.498331 277.303502,374.597998 274.452194,376.336604 C272.79383,377.347133 271.174251,377.869956 269.739507,377.869653 C265.341342,377.845737 260.63229,374.081532 260.63229,368.515753 L260.63229,256.167233 C260.63229,252.830793 262.37277,249.867928 265.287709,248.240728 C268.202952,246.613528 271.640581,246.686185 274.480677,248.433267 L366.110682,304.864549 C368.864724,306.558653 370.44067,309.383471 370.434004,312.614863 C370.427338,315.845951 368.839877,318.664412 366.070685,320.352764 L299.821865,360.879267 C296.972375,362.622414 296.076683,366.343328 297.821404,369.189943 C299.565823,372.036861 303.290098,372.931745 306.139588,371.188598 L372.380529,330.666939 C378.722795,326.801318 382.518277,320.062442 382.533473,312.639081 C382.548578,305.216629 378.780367,298.46201 372.456887,294.572474 Z" id="Path" transform="translate(315.533473, 312.458156) rotate(47.000000) translate(-315.533473, -312.458156) "></path>
        </g>
    </g>
</svg>